<svg width="189" height="61" viewBox="0 0 189 61" fill="none" xmlns="http://www.w3.org/2000/svg">
<path d="M64.9897 36.8872V20.6827H78.3006V24.4329H69.2723V27.2108H77.9533V30.9147H69.2723V36.8872H64.9897ZM81.1761 36.8872V23.9467C81.1761 22.1642 82.6346 20.6827 84.4171 20.6827H93.2601C95.0426 20.6827 96.501 22.1411 96.501 23.9236V36.8872H92.2415V32.4425H85.4125V36.8872H81.1761ZM85.4125 28.6923H92.2415V24.5023H85.4125V28.6923ZM100.211 36.8872V20.6827H112.295C114.078 20.6827 115.536 22.1411 115.536 23.9236V36.8872H111.276V24.5486H104.447V36.8872H100.211ZM119.133 36.8872V20.6827H131.217C132.999 20.6827 134.458 22.1411 134.458 23.9236V28.6692C134.458 30.4517 132.999 31.9101 131.217 31.9101H123.369V36.8872H119.133ZM123.369 28.1599H130.198V24.456H123.369V28.1599ZM137.354 36.8872V20.6827H141.683V33.0676H150.202V36.8872H137.354ZM152.523 36.8872V23.9467C152.523 22.1642 153.982 20.6827 155.764 20.6827H164.607C166.39 20.6827 167.848 22.1411 167.848 23.9236V36.8872H163.589V32.4425H156.759V36.8872H152.523ZM156.759 28.6923H163.589V24.5023H156.759V28.6923ZM182.299 20.6827H186.559V29.3174C186.559 31.0999 185.1 32.5583 183.318 32.5583H180.957V36.8872H176.836V32.5583H174.475C172.692 32.5583 171.234 31.0999 171.234 29.3174V20.6827H175.47V28.8081H182.299V20.6827Z" fill="white"/>
<path d="M0.666085 38.2101C0.658766 38.2438 0.488964 38.9844 0.522632 38.9786C1.07302 38.8805 11.7281 36.0817 12.135 36.0188C12.1555 36.0158 12.1687 35.9997 12.1731 35.9792C13.8491 28.0425 15.5559 26.9519 16.7987 25.8233C19.0691 23.7608 25.3503 19.9388 25.3078 19.9505C24.0021 20.5771 17.2159 22.3834 15.1724 20.8508C13.6925 19.7412 14.4332 14.2988 23.7372 11.1984C29.2074 9.37454 40.6763 5.22611 40.6207 5.23635C19.4394 9.29696 26.3208 0.00177531 26.3208 0.00177531C17.2598 -0.106546 8.8151 4.77818 8.8151 4.77818" fill="white"/>
<path d="M19.7675 28.9663C19.7675 28.9663 16.9204 47.8699 0.019258 60.9154C-0.0246562 60.9491 0.0134028 61.0179 0.0646361 60.9959C3.3948 59.576 30.667 47.5157 40.1642 29.5899C40.1861 29.5489 40.1422 29.5035 40.1012 29.5255C38.816 30.1813 28.6074 35.1685 22.6175 31.3933C22.5765 31.367 22.597 31.3026 22.6453 31.3055C24.2833 31.3889 36.6964 31.79 41.3294 25.1472C41.3543 25.1121 41.3206 25.0638 41.2781 25.0726L34.2914 26.7355C34.2343 26.7487 34.208 26.6681 34.2621 26.6462L41.2767 23.8181C41.2767 23.8181 45.2597 15.6676 45.0753 9.66309C45.0753 9.66309 37.7226 24.6759 19.7675 28.9649V28.9663Z" fill="white"/>
</svg>
