<svg width="189" height="62" viewBox="0 0 189 62" fill="none" xmlns="http://www.w3.org/2000/svg">
<path d="M64.9897 37.3872V21.1827H78.3006V24.9329H69.2723V27.7108H77.9533V31.4147H69.2723V37.3872H64.9897ZM81.1761 37.3872V24.4467C81.1761 22.6642 82.6346 21.1827 84.4171 21.1827H93.2601C95.0426 21.1827 96.501 22.6411 96.501 24.4236V37.3872H92.2415V32.9425H85.4125V37.3872H81.1761ZM85.4125 29.1923H92.2415V25.0023H85.4125V29.1923ZM100.211 37.3872V21.1827H112.295C114.078 21.1827 115.536 22.6411 115.536 24.4236V37.3872H111.276V25.0486H104.447V37.3872H100.211ZM119.133 37.3872V21.1827H131.217C132.999 21.1827 134.458 22.6411 134.458 24.4236V29.1692C134.458 30.9517 132.999 32.4101 131.217 32.4101H123.369V37.3872H119.133ZM123.369 28.6599H130.198V24.956H123.369V28.6599ZM137.354 37.3872V21.1827H141.683V33.5676H150.202V37.3872H137.354ZM152.523 37.3872V24.4467C152.523 22.6642 153.982 21.1827 155.764 21.1827H164.607C166.39 21.1827 167.848 22.6411 167.848 24.4236V37.3872H163.589V32.9425H156.759V37.3872H152.523ZM156.759 29.1923H163.589V25.0023H156.759V29.1923ZM182.299 21.1827H186.559V29.8174C186.559 31.5999 185.1 33.0583 183.318 33.0583H180.957V37.3872H176.836V33.0583H174.475C172.692 33.0583 171.234 31.5999 171.234 29.8174V21.1827H175.47V29.3081H182.299V21.1827Z" fill="black"/>
<path d="M64.9897 37.3872H64.8651V37.5118H64.9897V37.3872ZM64.9897 21.1827V21.0581H64.8651V21.1827H64.9897ZM78.3006 21.1827H78.4251V21.0581H78.3006V21.1827ZM78.3006 24.9329V25.0574H78.4251V24.9329H78.3006ZM69.2723 24.9329V24.8083H69.1478V24.9329H69.2723ZM69.2723 27.7108H69.1478V27.8353H69.2723V27.7108ZM77.9533 27.7108H78.0779V27.5862H77.9533V27.7108ZM77.9533 31.4147V31.5392H78.0779V31.4147H77.9533ZM69.2723 31.4147V31.2901H69.1478V31.4147H69.2723ZM69.2723 37.3872V37.5118H69.3969V37.3872H69.2723ZM65.1143 37.3872V21.1827H64.8651V37.3872H65.1143ZM64.9897 21.3072H78.3006V21.0581H64.9897V21.3072ZM78.176 21.1827V24.9329H78.4251V21.1827H78.176ZM78.3006 24.8083H69.2723V25.0574H78.3006V24.8083ZM69.1478 24.9329V27.7108H69.3969V24.9329H69.1478ZM69.2723 27.8353H77.9533V27.5862H69.2723V27.8353ZM77.8288 27.7108V31.4147H78.0779V27.7108H77.8288ZM77.9533 31.2901H69.2723V31.5392H77.9533V31.2901ZM69.1478 31.4147V37.3872H69.3969V31.4147H69.1478ZM69.2723 37.2626H64.9897V37.5118H69.2723V37.2626ZM81.1761 37.3872H81.0516V37.5118H81.1761V37.3872ZM96.501 37.3872V37.5118H96.6256V37.3872H96.501ZM92.2415 37.3872H92.117V37.5118H92.2415V37.3872ZM92.2415 32.9425H92.3661V32.818H92.2415V32.9425ZM85.4125 32.9425V32.818H85.2879V32.9425H85.4125ZM85.4125 37.3872V37.5118H85.537V37.3872H85.4125ZM85.4125 29.1923H85.2879V29.3169H85.4125V29.1923ZM92.2415 29.1923V29.3169H92.3661V29.1923H92.2415ZM92.2415 25.0023H92.3661V24.8778H92.2415V25.0023ZM85.4125 25.0023V24.8778H85.2879V25.0023H85.4125ZM81.3007 37.3872V24.4467H81.0516V37.3872H81.3007ZM81.3007 24.4467C81.3007 22.7319 82.7045 21.3072 84.4171 21.3072V21.0581C82.5646 21.0581 81.0516 22.5966 81.0516 24.4467H81.3007ZM84.4171 21.3072H93.2601V21.0581H84.4171V21.3072ZM93.2601 21.3072C94.9738 21.3072 96.3765 22.7099 96.3765 24.4236H96.6256C96.6256 22.5723 95.1114 21.0581 93.2601 21.0581V21.3072ZM96.3765 24.4236V37.3872H96.6256V24.4236H96.3765ZM96.501 37.2626H92.2415V37.5118H96.501V37.2626ZM92.3661 37.3872V32.9425H92.117V37.3872H92.3661ZM92.2415 32.818H85.4125V33.0671H92.2415V32.818ZM85.2879 32.9425V37.3872H85.537V32.9425H85.2879ZM85.4125 37.2626H81.1761V37.5118H85.4125V37.2626ZM85.4125 29.3169H92.2415V29.0678H85.4125V29.3169ZM92.3661 29.1923V25.0023H92.117V29.1923H92.3661ZM92.2415 24.8778H85.4125V25.1269H92.2415V24.8778ZM85.2879 25.0023V29.1923H85.537V25.0023H85.2879ZM100.211 37.3872H100.086V37.5118H100.211V37.3872ZM100.211 21.1827V21.0581H100.086V21.1827H100.211ZM115.536 37.3872V37.5118H115.66V37.3872H115.536ZM111.276 37.3872H111.152V37.5118H111.276V37.3872ZM111.276 25.0486H111.401V24.9241H111.276V25.0486ZM104.447 25.0486V24.9241H104.323V25.0486H104.447ZM104.447 37.3872V37.5118H104.572V37.3872H104.447ZM100.336 37.3872V21.1827H100.086V37.3872H100.336ZM100.211 21.3072H112.295V21.0581H100.211V21.3072ZM112.295 21.3072C114.009 21.3072 115.411 22.7099 115.411 24.4236H115.66C115.66 22.5723 114.146 21.0581 112.295 21.0581V21.3072ZM115.411 24.4236V37.3872H115.66V24.4236H115.411ZM115.536 37.2626H111.276V37.5118H115.536V37.2626ZM111.401 37.3872V25.0486H111.152V37.3872H111.401ZM111.276 24.9241H104.447V25.1732H111.276V24.9241ZM104.323 25.0486V37.3872H104.572V25.0486H104.323ZM104.447 37.2626H100.211V37.5118H104.447V37.2626ZM119.133 37.3872H119.008V37.5118H119.133V37.3872ZM119.133 21.1827V21.0581H119.008V21.1827H119.133ZM123.369 32.4101V32.2855H123.245V32.4101H123.369ZM123.369 37.3872V37.5118H123.494V37.3872H123.369ZM123.369 28.6599H123.245V28.7845H123.369V28.6599ZM130.198 28.6599V28.7845H130.323V28.6599H130.198ZM130.198 24.956H130.323V24.8315H130.198V24.956ZM123.369 24.956V24.8315H123.245V24.956H123.369ZM119.257 37.3872V21.1827H119.008V37.3872H119.257ZM119.133 21.3072H131.217V21.0581H119.133V21.3072ZM131.217 21.3072C132.931 21.3072 134.333 22.7099 134.333 24.4236H134.582C134.582 22.5723 133.068 21.0581 131.217 21.0581V21.3072ZM134.333 24.4236V29.1692H134.582V24.4236H134.333ZM134.333 29.1692C134.333 30.8829 132.931 32.2855 131.217 32.2855V32.5347C133.068 32.5347 134.582 31.0205 134.582 29.1692H134.333ZM131.217 32.2855H123.369V32.5347H131.217V32.2855ZM123.245 32.4101V37.3872H123.494V32.4101H123.245ZM123.369 37.2626H119.133V37.5118H123.369V37.2626ZM123.369 28.7845H130.198V28.5353H123.369V28.7845ZM130.323 28.6599V24.956H130.074V28.6599H130.323ZM130.198 24.8315H123.369V25.0806H130.198V24.8315ZM123.245 24.956V28.6599H123.494V24.956H123.245ZM137.354 37.3872H137.229V37.5118H137.354V37.3872ZM137.354 21.1827V21.0581H137.229V21.1827H137.354ZM141.683 21.1827H141.807V21.0581H141.683V21.1827ZM141.683 33.5676H141.558V33.6921H141.683V33.5676ZM150.202 33.5676H150.326V33.443H150.202V33.5676ZM150.202 37.3872V37.5118H150.326V37.3872H150.202ZM137.479 37.3872V21.1827H137.229V37.3872H137.479ZM137.354 21.3072H141.683V21.0581H137.354V21.3072ZM141.558 21.1827V33.5676H141.807V21.1827H141.558ZM141.683 33.6921H150.202V33.443H141.683V33.6921ZM150.077 33.5676V37.3872H150.326V33.5676H150.077ZM150.202 37.2626H137.354V37.5118H150.202V37.2626ZM152.523 37.3872H152.399V37.5118H152.523V37.3872ZM167.848 37.3872V37.5118H167.973V37.3872H167.848ZM163.589 37.3872H163.464V37.5118H163.589V37.3872ZM163.589 32.9425H163.713V32.818H163.589V32.9425ZM156.759 32.9425V32.818H156.635V32.9425H156.759ZM156.759 37.3872V37.5118H156.884V37.3872H156.759ZM156.759 29.1923H156.635V29.3169H156.759V29.1923ZM163.589 29.1923V29.3169H163.713V29.1923H163.589ZM163.589 25.0023H163.713V24.8778H163.589V25.0023ZM156.759 25.0023V24.8778H156.635V25.0023H156.759ZM152.648 37.3872V24.4467H152.399V37.3872H152.648ZM152.648 24.4467C152.648 22.7319 154.051 21.3072 155.764 21.3072V21.0581C153.912 21.0581 152.399 22.5966 152.399 24.4467H152.648ZM155.764 21.3072H164.607V21.0581H155.764V21.3072ZM164.607 21.3072C166.321 21.3072 167.723 22.7099 167.723 24.4236H167.973C167.973 22.5723 166.458 21.0581 164.607 21.0581V21.3072ZM167.723 24.4236V37.3872H167.973V24.4236H167.723ZM167.848 37.2626H163.589V37.5118H167.848V37.2626ZM163.713 37.3872V32.9425H163.464V37.3872H163.713ZM163.589 32.818H156.759V33.0671H163.589V32.818ZM156.635 32.9425V37.3872H156.884V32.9425H156.635ZM156.759 37.2626H152.523V37.5118H156.759V37.2626ZM156.759 29.3169H163.589V29.0678H156.759V29.3169ZM163.713 29.1923V25.0023H163.464V29.1923H163.713ZM163.589 24.8778H156.759V25.1269H163.589V24.8778ZM156.635 25.0023V29.1923H156.884V25.0023H156.635ZM182.299 21.1827V21.0581H182.175V21.1827H182.299ZM186.559 21.1827H186.683V21.0581H186.559V21.1827ZM180.957 33.0583V32.9337H180.832V33.0583H180.957ZM180.957 37.3872V37.5118H181.081V37.3872H180.957ZM176.836 37.3872H176.712V37.5118H176.836V37.3872ZM176.836 33.0583H176.961V32.9337H176.836V33.0583ZM171.234 21.1827V21.0581H171.109V21.1827H171.234ZM175.47 21.1827H175.595V21.0581H175.47V21.1827ZM175.47 29.3081H175.346V29.4326H175.47V29.3081ZM182.299 29.3081V29.4326H182.424V29.3081H182.299ZM182.299 21.3072H186.559V21.0581H182.299V21.3072ZM186.434 21.1827V29.8174H186.683V21.1827H186.434ZM186.434 29.8174C186.434 31.5311 185.032 32.9337 183.318 32.9337V33.1828C185.169 33.1828 186.683 31.6687 186.683 29.8174H186.434ZM183.318 32.9337H180.957V33.1828H183.318V32.9337ZM180.832 33.0583V37.3872H181.081V33.0583H180.832ZM180.957 37.2626H176.836V37.5118H180.957V37.2626ZM176.961 37.3872V33.0583H176.712V37.3872H176.961ZM176.836 32.9337H174.475V33.1828H176.836V32.9337ZM174.475 32.9337C172.761 32.9337 171.358 31.5311 171.358 29.8174H171.109C171.109 31.6687 172.624 33.1828 174.475 33.1828V32.9337ZM171.358 29.8174V21.1827H171.109V29.8174H171.358ZM171.234 21.3072H175.47V21.0581H171.234V21.3072ZM175.346 21.1827V29.3081H175.595V21.1827H175.346ZM175.47 29.4326H182.299V29.1835H175.47V29.4326ZM182.424 29.3081V21.1827H182.175V29.3081H182.424Z" fill="#6A6A6A"/>
<path d="M0.666085 38.7101C0.658766 38.7438 0.488964 39.4844 0.522632 39.4786C1.07302 39.3805 11.7281 36.5817 12.135 36.5188C12.1555 36.5158 12.1687 36.4997 12.1731 36.4792C13.8491 28.5425 15.5559 27.4519 16.7987 26.3233C19.0691 24.2608 25.3503 20.4388 25.3078 20.4505C24.0021 21.0771 17.2159 22.8834 15.1724 21.3508C13.6925 20.2412 14.4332 14.7988 23.7372 11.6984C29.2074 9.87454 40.6763 5.72611 40.6207 5.73635C19.4394 9.79696 26.3208 0.501775 26.3208 0.501775C17.2598 0.393454 8.8151 5.27818 8.8151 5.27818" fill="#13091B"/>
<path d="M19.7675 29.4661C19.7675 29.4661 16.9204 48.3697 0.019258 61.4151C-0.0246562 61.4488 0.0134028 61.5176 0.0646361 61.4957C3.3948 60.0758 30.667 48.0155 40.1642 30.0897C40.1861 30.0487 40.1422 30.0033 40.1012 30.0253C38.816 30.681 28.6074 35.6682 22.6175 31.8931C22.5765 31.8667 22.597 31.8023 22.6453 31.8052C24.2833 31.8887 36.6964 32.2898 41.3294 25.647C41.3543 25.6119 41.3206 25.5636 41.2781 25.5723L34.2914 27.2352C34.2343 27.2484 34.208 27.1679 34.2621 27.1459L41.2767 24.3179C41.2767 24.3179 45.2597 16.1674 45.0753 10.1628C45.0753 10.1628 37.7226 25.1757 19.7675 29.4646V29.4661Z" fill="#13091B"/>
</svg>
