<svg width="29" height="40" viewBox="0 0 29 40" fill="none" xmlns="http://www.w3.org/2000/svg">
<path d="M0.428615 24.9597C0.423907 24.9813 0.314677 25.4578 0.336335 25.454C0.690391 25.3909 7.54457 23.5905 7.80635 23.55C7.81953 23.5481 7.82801 23.5378 7.83083 23.5246C8.90901 18.419 10.007 17.7175 10.8064 16.9915C12.2669 15.6648 16.3075 13.2061 16.2801 13.2137C15.4402 13.6167 11.0748 14.7787 9.76025 13.7928C8.80825 13.079 9.28472 9.578 15.2698 7.58361C18.7887 6.41033 26.1664 3.74173 26.1306 3.74832C12.5051 6.36043 16.9318 0.381025 16.9318 0.381025C11.103 0.311344 5.67071 3.45359 5.67071 3.45359" fill="#13091B"/>
<path d="M12.716 19.0131C12.716 19.0131 10.8845 31.1734 0.0123883 39.5653C-0.0158608 39.5869 0.00862176 39.6312 0.0415791 39.6171C2.18381 38.7037 19.7275 30.9455 25.8368 19.4142C25.8509 19.3879 25.8227 19.3587 25.7963 19.3728C24.9696 19.7946 18.4026 23.0028 14.5494 20.5743C14.523 20.5574 14.5362 20.5159 14.5673 20.5178C15.621 20.5715 23.6061 20.8295 26.5864 16.5563C26.6024 16.5337 26.5807 16.5027 26.5534 16.5083L22.059 17.578C22.0222 17.5865 22.0053 17.5347 22.0401 17.5206L26.5525 15.7013C26.5525 15.7013 29.1146 10.4583 28.996 6.5957C28.996 6.5957 24.2662 16.2531 12.716 19.0121V19.0131Z" fill="#13091B"/>
</svg>
