<svg width="30" height="30" viewBox="0 0 30 30" fill="none" xmlns="http://www.w3.org/2000/svg">
<path d="M24.5313 27.5L21.9788 25.25L20.54 23.9125L19.0188 22.5L19.6438 24.6988H6.18376C5.5364 24.6964 4.91644 24.4372 4.46009 23.9781C4.00375 23.5189 3.74835 22.8974 3.75001 22.25V6.19625C3.74901 5.54932 4.0047 4.92842 4.46098 4.46981C4.91725 4.01119 5.53683 3.75232 6.18376 3.75H22.0975C22.7444 3.75232 23.364 4.01119 23.8203 4.46981C24.2766 4.92842 24.5323 5.54932 24.5313 6.19625V27.5ZM18.875 16.885C18.3479 17.5919 17.5891 18.091 16.7313 18.295C17.0838 18.745 17.5088 19.2537 17.5125 19.2587C18.2189 19.2737 18.9185 19.1173 19.5513 18.803C20.1841 18.4886 20.7313 18.0257 21.1463 17.4538C21.1031 15.0471 20.5187 12.6811 19.4363 10.5312C18.4833 9.78346 17.3233 9.34704 16.1138 9.28125H16.1L15.9338 9.47125C17.0141 9.76144 18.0217 10.275 18.8913 10.9788C17.7848 10.3705 16.5706 9.98332 15.3163 9.83875C14.519 9.75021 13.7141 9.75818 12.9188 9.8625C12.8625 9.86361 12.8065 9.86947 12.7513 9.88H12.7163C11.7842 9.98732 10.8748 10.2404 10.0213 10.63C9.59376 10.8262 9.33126 10.9688 9.32001 10.9738C9.30876 10.9788 9.32001 10.9738 9.32001 10.965C10.2425 10.24 11.3075 9.715 12.4438 9.42625L12.3188 9.28375H12.3113C11.1017 9.3497 9.9418 9.7861 8.98876 10.5338C7.90239 12.6822 7.31771 15.0491 7.27876 17.4563C7.68828 18.0317 8.23324 18.4974 8.86548 18.8122C9.49771 19.127 10.1978 19.2812 10.9038 19.2613C10.9038 19.2613 11.3513 18.7162 11.7 18.275C10.8638 18.0648 10.1269 17.5698 9.61626 16.875C9.62501 16.8813 9.74876 16.965 9.94876 17.075C9.96126 17.0912 9.97876 17.1037 9.99751 17.1125C10.0133 17.1235 10.0301 17.1331 10.0475 17.1413C10.3436 17.3086 10.652 17.4532 10.97 17.5737C11.5363 17.7987 12.1225 17.97 12.72 18.0863C13.2438 18.185 13.775 18.2362 14.3075 18.2362C14.8075 18.2362 15.305 18.19 15.7963 18.0988C16.3876 17.9949 16.9651 17.8238 17.5175 17.5887C17.9947 17.4052 18.45 17.1692 18.875 16.885ZM16.3275 16.3513C16.0615 16.3747 15.7946 16.3172 15.5618 16.1863C15.329 16.0554 15.1412 15.8572 15.023 15.6177C14.9049 15.3782 14.8618 15.1085 14.8996 14.8441C14.9373 14.5798 15.054 14.3329 15.2345 14.1361C15.4149 13.9392 15.6507 13.8014 15.9108 13.7409C16.1709 13.6803 16.4432 13.6998 16.6921 13.7967C16.941 13.8936 17.1547 14.0635 17.3054 14.284C17.456 14.5045 17.5365 14.7654 17.5363 15.0325C17.5638 15.73 17.0238 16.32 16.3263 16.3513H16.3275ZM11.9925 16.3513C11.6626 16.3225 11.3554 16.1711 11.1316 15.927C10.9078 15.6828 10.7837 15.3637 10.7837 15.0325C10.7837 14.7013 10.9078 14.3822 11.1316 14.138C11.3554 13.8939 11.6626 13.7425 11.9925 13.7137C12.1485 13.7141 12.3028 13.7458 12.4462 13.807C12.5897 13.8682 12.7193 13.9576 12.8275 14.07C13.0763 14.3275 13.2113 14.6737 13.2025 15.0312C13.2164 15.3668 13.0967 15.6941 12.8697 15.9416C12.6426 16.189 12.3267 16.3363 11.9913 16.3513H11.9925Z" fill="white"/>
</svg>
