<svg width="30" height="30" viewBox="0 0 30 30" fill="none" xmlns="http://www.w3.org/2000/svg">
<path d="M15 27.5C8.09625 27.5 2.5 21.9037 2.5 15C2.5 8.09625 8.09625 2.5 15 2.5C21.9037 2.5 27.5 8.09625 27.5 15C27.4925 21.9 21.9 27.4925 15 27.5ZM8.50875 13.1787C8.09248 13.179 7.6888 13.3215 7.36467 13.5827C7.04054 13.8439 6.81544 14.2081 6.72672 14.6148C6.63799 15.0215 6.69097 15.4463 6.87687 15.8187C7.06276 16.1912 7.3704 16.4889 7.74875 16.6625C7.73305 16.8451 7.73305 17.0287 7.74875 17.2112C7.74875 20.0112 11.0175 22.2887 15.035 22.2887C19.0525 22.2887 22.3225 20.0112 22.3225 17.2112C22.337 17.0286 22.337 16.8451 22.3225 16.6625C22.6908 16.4836 22.9872 16.1845 23.1627 15.8145C23.3382 15.4446 23.3825 15.0258 23.2881 14.6274C23.1938 14.2289 22.9665 13.8745 22.6437 13.6225C22.3209 13.3705 21.9219 13.2361 21.5125 13.2412H21.4462C20.9985 13.2578 20.5725 13.4389 20.25 13.75C18.8282 12.7831 17.1566 12.2491 15.4375 12.2125L16.25 8.3125L18.9225 8.875C18.9583 9.20451 19.1236 9.50629 19.3819 9.71398C19.6402 9.92167 19.9705 10.0183 20.3 9.9825C20.6191 9.95047 20.9137 9.79701 21.1228 9.55386C21.332 9.31071 21.4396 8.99648 21.4236 8.67617C21.4075 8.35586 21.269 8.05397 21.0366 7.83296C20.8042 7.61194 20.4957 7.48871 20.175 7.48875C20.1277 7.48934 20.0805 7.4931 20.0337 7.5C19.8384 7.52075 19.6507 7.58725 19.4859 7.6941C19.321 7.80095 19.1837 7.94515 19.085 8.115L16.025 7.5C15.9251 7.47919 15.821 7.49863 15.7354 7.5541C15.6497 7.60956 15.5894 7.69658 15.5675 7.79625L14.6325 12.1375C12.8923 12.1621 11.1974 12.6962 9.7575 13.6737C9.42001 13.3549 8.97304 13.1777 8.50875 13.1787ZM15.225 20.655H14.8025C13.7651 20.651 12.7567 20.3121 11.9275 19.6887C11.8716 19.6246 11.842 19.5416 11.8449 19.4565C11.8477 19.3714 11.8828 19.2906 11.9429 19.2303C12.003 19.1701 12.0837 19.1348 12.1688 19.1318C12.2539 19.1287 12.3369 19.158 12.4012 19.2137C13.1012 19.7262 13.9487 20.0025 14.8175 20H15.2225C16.08 20.0013 16.9161 19.7328 17.6125 19.2325C17.6451 19.1992 17.684 19.1728 17.7269 19.1548C17.7698 19.1367 17.8159 19.1274 17.8625 19.1274C17.9091 19.1274 17.9552 19.1367 17.9981 19.1548C18.041 19.1728 18.0799 19.1992 18.1125 19.2325C18.1776 19.2998 18.2135 19.3901 18.2123 19.4838C18.2112 19.5774 18.173 19.6668 18.1062 19.7325V19.6825C17.2766 20.3102 16.2653 20.651 15.225 20.6537V20.655ZM17.8837 17.6H17.8637L17.8737 17.5512C17.6069 17.533 17.3542 17.4242 17.1576 17.2428C16.9611 17.0613 16.8324 16.8182 16.7928 16.5536C16.7533 16.289 16.8054 16.0189 16.9403 15.788C17.0753 15.557 17.2851 15.3791 17.5351 15.2837C17.785 15.1883 18.06 15.1811 18.3145 15.2633C18.5691 15.3455 18.7879 15.5123 18.9348 15.7358C19.0816 15.9594 19.1477 16.2265 19.1221 16.4928C19.0964 16.759 18.9806 17.0085 18.7937 17.2C18.683 17.3209 18.5492 17.4186 18.4002 17.4873C18.2513 17.5559 18.0902 17.5943 17.9262 17.6H17.8825H17.8837ZM12.0875 17.5C11.756 17.5 11.438 17.3683 11.2036 17.1339C10.9692 16.8995 10.8375 16.5815 10.8375 16.25C10.8375 15.9185 10.9692 15.6005 11.2036 15.3661C11.438 15.1317 11.756 15 12.0875 15C12.419 15 12.737 15.1317 12.9714 15.3661C13.2058 15.6005 13.3375 15.9185 13.3375 16.25C13.3375 16.5815 13.2058 16.8995 12.9714 17.1339C12.737 17.3683 12.419 17.5 12.0875 17.5Z" fill="white"/>
</svg>
