<svg width="30" height="30" viewBox="0 0 30 30" fill="none" xmlns="http://www.w3.org/2000/svg">
<path d="M24.9938 8.35957C26.1143 7.68968 26.9527 6.63487 27.3525 5.39207C26.2996 6.01685 25.1476 6.45694 23.9463 6.69332C23.1361 5.83626 22.0665 5.26947 20.9023 5.08032C19.7382 4.89118 18.5441 5.09017 17.5043 5.64664C16.4644 6.20311 15.6364 7.08615 15.148 8.15964C14.6595 9.23314 14.5377 10.4375 14.8013 11.5871C12.6686 11.48 10.5823 10.9257 8.67779 9.96005C6.77326 8.99443 5.09306 7.63911 3.74627 5.98207C3.06135 7.16345 2.85176 8.56123 3.16008 9.89154C3.46839 11.2218 4.27149 12.3849 5.40627 13.1446C4.55466 13.1172 3.72193 12.8866 2.97752 12.4721V12.5396C2.97776 13.7783 3.40643 14.9788 4.19085 15.9375C4.97526 16.8962 6.06712 17.5541 7.28127 17.7996C6.49135 18.0145 5.66278 18.0461 4.85877 17.8921C5.20218 18.9575 5.86965 19.8891 6.76803 20.5569C7.6664 21.2246 8.75085 21.5953 9.87002 21.6171C7.96981 23.1085 5.62311 23.9173 3.20752 23.9133C2.77877 23.9133 2.35127 23.8883 1.92627 23.8396C4.37929 25.4158 7.23424 26.2524 10.15 26.2496C12.1583 26.2634 14.1493 25.878 16.0073 25.1158C17.8653 24.3536 19.5534 23.2297 20.9734 21.8096C22.3935 20.3895 23.5171 18.7013 24.2792 16.8432C25.0412 14.9851 25.4265 12.9941 25.4125 10.9858C25.4125 10.7533 25.4075 10.5221 25.3963 10.2921C26.4468 9.53284 27.3536 8.59227 28.0738 7.51457C27.095 7.94838 26.0569 8.2332 24.9938 8.35957Z" fill="white"/>
</svg>
